<?xml version="1.0" encoding="UTF-8" standalone="no"?>
<!DOCTYPE svg PUBLIC "-//W3C//DTD SVG 1.1//EN" "http://www.w3.org/Graphics/SVG/1.1/DTD/svg11.dtd">
<svg width="36.18" height="34.56" viewBox="0.00 0.00 603.00 576.00" xmlns="http://www.w3.org/2000/svg" xmlns:xlink="http://www.w3.org/1999/xlink">
<g stroke-linecap="round" id="Layer_2_2_2">
<path d="M195.50,182.50 C198.87,182.22 206.84,181.52 208.55,180.12 C209.70,179.15 226.46,145.33 233.46,131.16 C242.43,112.90 260.07,77.36 268.74,60.06 C275.67,46.91 288.08,24.00 288.23,23.69 C289.19,21.84 290.68,20.27 292.66,19.21 C294.32,18.35 297.35,17.87 299.84,17.91 C301.42,18.01 304.91,18.25 305.50,18.50 C307.00,19.20 308.71,21.07 309.74,23.08 C311.00,25.53 363.16,131.29 364.50,134.50 C366.03,138.20 367.85,144.99 368.50,147.50" fill="none" stroke="rgb(255, 255, 255)" stroke-width="14.88" stroke-opacity="1.00" stroke-linejoin="round"/>
<path d="M506.50,291.50 C507.40,292.94 507.22,294.90 507.50,295.50 C507.56,295.63 516.70,301.71 519.50,304.50 C521.89,306.92 526.29,313.28 528.91,317.66 C530.81,320.90 532.80,325.95 533.12,329.39 C533.50,333.66 533.75,351.81 533.82,360.09 C533.76,368.08 533.41,386.97 532.59,392.85 C532.09,396.34 530.00,402.06 528.50,404.50 C525.86,408.70 512.81,421.16 509.36,423.44 C507.10,424.91 501.31,426.91 496.07,428.36 C486.19,430.90 472.51,433.24 465.04,432.68 C463.73,432.60 460.85,432.38 460.50,432.50 C459.80,432.76 459.25,433.50 458.50,433.50 C457.76,433.50 456.18,432.40 454.14,432.50 C453.77,432.52 407.00,432.93 387.56,433.12 C379.52,433.04 360.27,432.64 358.50,432.50 C351.01,431.86 343.04,430.02 339.65,428.25 C337.18,426.96 332.74,424.64 329.17,422.60 C325.14,420.30 320.79,416.98 318.56,414.25 C315.68,410.73 311.86,405.72 310.03,402.97 C308.27,400.29 306.36,395.63 306.09,393.31 C305.51,387.82 305.39,331.13 305.38,330.83 C305.35,328.78 306.10,327.49 307.80,327.28 C308.08,327.25 379.43,327.61 386.31,327.56 C391.35,327.51 395.03,327.42 395.50,328.50 C395.86,329.42 395.24,384.92 395.50,386.50 C395.78,387.94 396.87,391.11 397.74,391.80 C399.10,392.82 402.09,393.66 404.14,393.74 C412.20,394.11 428.14,393.98 434.86,393.70 C436.92,393.62 439.83,392.96 441.23,392.15 C442.85,391.16 443.52,386.33 443.64,380.71 C443.68,372.59 443.67,355.01 443.62,345.54 C443.52,332.66 442.99,328.12 441.79,326.57 C440.40,324.84 433.49,321.63 432.18,321.00 C399.79,306.02 352.68,284.23 337.96,277.42 C327.85,272.68 321.73,269.49 317.50,264.50 C317.08,264.00 310.48,254.88 309.07,252.09 C307.41,248.76 305.95,242.40 305.75,239.19 C305.39,232.70 306.00,198.03 306.29,193.16 C306.57,187.94 310.28,176.94 310.50,176.50 C310.66,176.20 317.00,168.55 319.41,166.25 C322.20,163.61 328.43,159.08 331.31,157.39 C334.71,155.43 342.16,152.50 346.31,151.40 C351.96,149.93 368.42,147.48 368.50,147.50 C369.23,147.66 370.81,148.59 372.84,148.53 C373.22,148.52 455.32,148.81 472.09,149.03 C483.24,149.39 495.78,150.50 501.27,153.35 C507.39,156.60 519.08,165.29 522.50,168.50 C525.54,171.41 528.25,175.59 529.55,179.24 C531.32,184.33 532.99,190.36 533.50,194.50 C534.02,198.94 533.77,233.10 533.71,239.36 C533.69,241.17 532.80,242.61 531.23,242.82 C531.05,242.84 459.57,242.40 452.69,242.44 C447.65,242.49 443.93,242.59 443.50,241.50 C443.22,240.71 442.99,200.80 442.70,194.15 C442.61,192.01 442.00,189.50 441.19,188.61 C440.23,187.62 414.97,187.09 412.03,187.10 C408.61,187.19 401.07,187.43 398.41,188.97 C396.52,190.12 395.14,194.88 395.29,197.59 C395.63,202.90 395.43,241.04 395.50,241.50 C395.92,243.84 398.62,245.58 402.69,247.68 C413.12,252.89 476.38,281.79 491.01,288.33 C492.36,288.91 499.27,291.92 501.87,291.98 C502.58,291.99 505.42,291.62 506.50,291.50" fill="none" stroke="rgb(255, 255, 255)" stroke-width="14.88" stroke-opacity="1.00" stroke-linejoin="round"/>
<path d="M139.50,433.50 C156.07,432.62 232.29,432.56 267.76,432.65 C270.84,432.63 278.83,432.53 279.20,432.54 C281.26,432.59 282.20,432.20 282.43,431.01 C282.46,430.89 282.56,394.66 282.50,394.50 C282.05,393.43 278.39,393.51 273.31,393.51 C257.08,393.43 224.39,393.37 207.94,393.39 C202.91,393.48 196.61,394.05 196.26,393.97 C194.98,393.65 194.39,392.21 194.45,390.13 C194.47,389.73 194.05,295.30 194.13,255.00 C194.27,224.85 194.50,184.52 194.50,184.50 C194.70,183.78 195.61,182.14 195.26,180.98 C194.40,178.07 194.75,158.68 194.71,151.83 C194.69,149.88 193.77,148.17 192.25,147.97 C190.99,147.84 188.00,148.58 185.98,148.55 C170.96,148.64 137.97,148.67 120.01,148.61 C109.00,148.52 104.94,148.42 104.50,149.50 C104.21,150.29 104.57,195.28 104.50,195.50 C104.28,196.21 103.50,196.76 103.50,197.50 C103.50,197.97 104.31,198.07 104.50,198.50 C104.68,198.90 104.66,294.23 104.50,294.50 C104.03,295.32 102.92,295.66 102.50,296.50 C102.41,296.68 104.21,299.23 104.50,300.50 C104.73,301.44 104.65,393.93 104.52,426.07 C104.52,428.07 104.43,430.74 104.47,431.01 C104.69,432.16 105.80,432.61 107.94,432.61 C115.88,432.59 137.16,432.41 137.50,432.50 C137.88,432.60 138.54,432.93 139.50,433.50" fill="none" stroke="rgb(255, 255, 255)" stroke-width="14.88" stroke-opacity="1.00" stroke-linejoin="round"/>
<path d="M102.50,296.50 C100.95,295.61 99.08,294.57 98.50,294.50 C97.84,294.41 97.12,294.75 96.50,294.50 C96.08,294.33 29.50,227.59 29.26,227.36 C26.84,224.94 25.33,220.30 25.50,217.50 C25.53,217.16 26.69,212.44 27.05,211.85 C27.89,210.55 30.03,209.18 31.70,208.67 C40.65,206.04 99.64,198.02 103.50,197.50" fill="none" stroke="rgb(255, 255, 255)" stroke-width="14.88" stroke-opacity="1.00" stroke-linejoin="round"/>
<path d="M534.50,203.50 C546.80,204.34 559.60,205.55 565.23,207.76 C567.00,208.49 569.66,210.36 570.50,211.50 C571.35,212.73 572.03,215.58 572.04,217.55 C571.98,221.46 570.74,226.46 568.88,228.81 C567.10,231.00 535.71,260.91 522.98,273.08 C514.12,281.79 510.41,286.28 506.50,291.50" fill="none" stroke="rgb(255, 255, 255)" stroke-width="14.88" stroke-opacity="1.00" stroke-linejoin="round"/>
<path d="M139.50,433.50 C138.72,444.07 125.62,519.52 125.50,522.50 C125.41,525.45 125.89,529.55 126.60,531.45 C126.95,532.32 128.99,535.96 129.50,536.50 C130.46,537.46 133.22,538.90 134.73,539.25 C137.28,539.79 142.51,537.97 145.84,536.34 C149.99,534.26 231.14,491.50 264.95,473.65 C276.14,467.66 290.21,460.14 293.09,458.60 C295.19,457.46 297.58,457.06 299.50,457.50 C300.71,457.81 382.27,499.30 414.52,515.83 C428.39,522.94 451.89,534.78 461.50,539.50" fill="none" stroke="rgb(255, 255, 255)" stroke-width="14.88" stroke-opacity="1.00" stroke-linejoin="round"/>
<path d="M458.50,433.50 C458.69,441.25 459.79,449.69 461.43,459.99 C464.16,475.99 471.56,519.16 472.02,522.71 C472.50,526.87 472.47,531.35 471.27,533.45 C470.50,534.73 468.59,536.17 466.83,536.85 C465.77,537.26 462.01,538.73 461.50,539.50 C460.77,540.62 460.91,542.88 461.50,544.50" fill="none" stroke="rgb(255, 255, 255)" stroke-width="14.88" stroke-opacity="1.00" stroke-linejoin="round"/>
<path d="M137.50,543.50 C137.50,543.50 137.50,539.50 137.50,539.50" fill="none" stroke="rgb(255, 255, 255)" stroke-width="14.88" stroke-opacity="1.00" stroke-linejoin="round"/>
</g>
</svg>
